<svg width="725" height="720" viewBox="0 0 725 720" fill="none" xmlns="http://www.w3.org/2000/svg" style="margin-top: 10px; scale: 70%">
    <style>
        .fillColor {
        fill: rgba(100, 100, 100, 0.2);
        }
    </style>
<rect x="288" y="256.642" width="171.523" height="22" rx="11" transform="rotate(-44.4763 288 256.642)" fill="#3451B2"/>
<circle cx="567.5" cy="28.5" r="15.5" class="fillColor"/>
<circle cx="514.5" cy="47.5" r="13.5" class="fillColor"/>
<circle cx="509.5" cy="87.5" r="6.5" fill="#3451B2"/>
<circle cx="510" cy="208" r="12" fill="#3451B2"/>
<circle cx="420.5" cy="289.5" r="18.5" fill="#3451B2"/>
<circle cx="377.5" cy="327.5" r="14.5" fill="#656A79"/>
<circle cx="96.5" cy="394.5" r="14.5" fill="#656A79"/>
<circle cx="295.5" cy="626.5" r="14.5" fill="#656A79"/>
<circle cx="420" cy="522" r="10" fill="#656A79"/>
<circle cx="688.5" cy="262.5" r="18.5" fill="#3451B2"/>
<circle cx="344.5" cy="81.5" r="6.5" fill="#3451B2"/>
<circle cx="203.5" cy="134.5" r="6.5" fill="#3451B2"/>
<circle cx="161.5" cy="174.5" r="6.5" fill="#3451B2"/>
<circle cx="116.5" cy="256.5" r="6.5" fill="#3451B2"/>
<circle cx="96.5" cy="280.5" r="6.5" fill="#3451B2"/>
<circle cx="488.5" cy="140.5" r="6.5" fill="#3451B2"/>
<circle cx="607.5" cy="202.5" r="6.5" fill="#3451B2"/>
<circle cx="633.5" cy="168.5" r="6.5" fill="#3451B2"/>
<circle cx="635.5" cy="115.5" r="6.5" fill="#3451B2"/>
<circle cx="702.5" cy="219.5" r="6.5" fill="#3451B2"/>
<circle cx="590.5" cy="65.5" r="7.5" class="fillColor"/>
<circle cx="563.5" cy="226.5" r="21.5" class="fillColor"/>
<path fill-rule="evenodd" clip-rule="evenodd" d="M565.5 174C589.524 174 609 154.524 609 130.5C609 106.476 589.524 87 565.5 87C541.476 87 522 106.476 522 130.5C522 154.524 541.476 174 565.5 174ZM566.5 151C578.374 151 588 141.374 588 129.5C588 117.626 578.374 108 566.5 108C554.626 108 545 117.626 545 129.5C545 141.374 554.626 151 566.5 151Z" class="fillColor"/>
<path fill-rule="evenodd" clip-rule="evenodd" d="M651 83C670.882 83 687 66.8823 687 47C687 27.1177 670.882 11 651 11C631.118 11 615 27.1177 615 47C615 66.8823 631.118 83 651 83ZM651.828 63.9655C661.654 63.9655 669.621 55.9993 669.621 46.1724C669.621 36.3455 661.654 28.3793 651.828 28.3793C642.001 28.3793 634.034 36.3455 634.034 46.1724C634.034 55.9993 642.001 63.9655 651.828 63.9655Z" class="fillColor"/>
<path fill-rule="evenodd" clip-rule="evenodd" d="M679.5 154C692.479 154 703 143.479 703 130.5C703 117.521 692.479 107 679.5 107C666.521 107 656 117.521 656 130.5C656 143.479 666.521 154 679.5 154ZM680.04 141.575C686.455 141.575 691.655 136.375 691.655 129.96C691.655 123.545 686.455 118.345 680.04 118.345C673.625 118.345 668.425 123.545 668.425 129.96C668.425 136.375 673.625 141.575 680.04 141.575Z" class="fillColor"/>
<path fill-rule="evenodd" clip-rule="evenodd" d="M463 118C474.046 118 483 109.046 483 98C483 86.9543 474.046 78 463 78C451.954 78 443 86.9543 443 98C443 109.046 451.954 118 463 118ZM463.46 107.425C468.919 107.425 473.345 103 473.345 97.5402C473.345 92.0809 468.919 87.6552 463.46 87.6552C458 87.6552 453.575 92.0809 453.575 97.5402C453.575 103 458 107.425 463.46 107.425Z" class="fillColor"/>
<path fill-rule="evenodd" clip-rule="evenodd" d="M459 48C470.046 48 479 39.0457 479 28C479 16.9543 470.046 8 459 8C447.954 8 439 16.9543 439 28C439 39.0457 447.954 48 459 48ZM459.46 37.4253C464.919 37.4253 469.345 32.9996 469.345 27.5402C469.345 22.0809 464.919 17.6552 459.46 17.6552C454 17.6552 449.575 22.0809 449.575 27.5402C449.575 32.9996 454 37.4253 459.46 37.4253Z" class="fillColor"/>
<path fill-rule="evenodd" clip-rule="evenodd" d="M301 127C312.046 127 321 118.046 321 107C321 95.9543 312.046 87 301 87C289.954 87 281 95.9543 281 107C281 118.046 289.954 127 301 127ZM301.46 116.425C306.919 116.425 311.345 112 311.345 106.54C311.345 101.081 306.919 96.6552 301.46 96.6552C296 96.6552 291.575 101.081 291.575 106.54C291.575 112 296 116.425 301.46 116.425Z" class="fillColor"/>
<path fill-rule="evenodd" clip-rule="evenodd" d="M248 175C259.046 175 268 166.046 268 155C268 143.954 259.046 135 248 135C236.954 135 228 143.954 228 155C228 166.046 236.954 175 248 175ZM248.46 164.425C253.919 164.425 258.345 160 258.345 154.54C258.345 149.081 253.919 144.655 248.46 144.655C243 144.655 238.575 149.081 238.575 154.54C238.575 160 243 164.425 248.46 164.425Z" class="fillColor"/>
<path fill-rule="evenodd" clip-rule="evenodd" d="M462 266C473.046 266 482 257.046 482 246C482 234.954 473.046 226 462 226C450.954 226 442 234.954 442 246C442 257.046 450.954 266 462 266ZM462.46 255.425C467.919 255.425 472.345 251 472.345 245.54C472.345 240.081 467.919 235.655 462.46 235.655C457 235.655 452.575 240.081 452.575 245.54C452.575 251 457 255.425 462.46 255.425Z" class="fillColor"/>
<path fill-rule="evenodd" clip-rule="evenodd" d="M351 594C373.644 594 392 575.644 392 553C392 530.356 373.644 512 351 512C328.356 512 310 530.356 310 553C310 575.644 328.356 594 351 594ZM351.943 572.322C363.134 572.322 372.207 563.249 372.207 552.057C372.207 540.866 363.134 531.793 351.943 531.793C340.751 531.793 331.678 540.866 331.678 552.057C331.678 563.249 340.751 572.322 351.943 572.322Z" class="fillColor"/>
<path fill-rule="evenodd" clip-rule="evenodd" d="M82 709C104.644 709 123 690.644 123 668C123 645.356 104.644 627 82 627C59.3563 627 41 645.356 41 668C41 690.644 59.3563 709 82 709ZM82.9425 687.322C94.1342 687.322 103.207 678.249 103.207 667.057C103.207 655.866 94.1342 646.793 82.9425 646.793C71.7508 646.793 62.6782 655.866 62.6782 667.057C62.6782 678.249 71.7508 687.322 82.9425 687.322Z" class="fillColor"/>
<circle cx="454.5" cy="487.5" r="21.5" class="fillColor"/>
<circle cx="454.5" cy="561.5" r="21.5" class="fillColor"/>
<circle cx="301.5" cy="405.5" r="25.5" class="fillColor"/>
<circle cx="342.5" cy="361.5" r="13.5" class="fillColor"/>
<circle cx="172.5" cy="245.5" r="13.5" class="fillColor"/>
<circle cx="133.5" cy="360.5" r="13.5" class="fillColor"/>
<rect x="195" y="348.169" width="99.9111" height="22" rx="11" transform="rotate(-44.4763 195 348.169)" class="fillColor"/>
<rect x="95" y="453.999" width="99.9111" height="22" rx="11" transform="rotate(-44.4763 95 453.999)" class="fillColor"/>
<rect x="111" y="508.999" width="135.174" height="22" rx="11" transform="rotate(-44.4763 111 508.999)" class="fillColor"/>
<rect x="100" y="596.705" width="171.516" height="22" rx="11" transform="rotate(-44.4763 100 596.705)" class="fillColor"/>
<rect x="145" y="629.167" width="288.179" height="22" rx="11" transform="rotate(-44.4763 145 629.167)" class="fillColor"/>
<rect x="218" y="626.903" width="83.5781" height="22" rx="11" transform="rotate(-44.4763 218 626.903)" class="fillColor"/>
<rect x="411" y="360.556" width="161.172" height="22" rx="11" transform="rotate(-44.4763 411 360.556)" class="fillColor"/>
<rect x="560" y="286.919" width="161.172" height="22" rx="11" transform="rotate(-44.4763 560 286.919)" class="fillColor"/>
<rect x="371" y="477.118" width="251.376" height="22" rx="11" transform="rotate(-44.4763 371 477.118)" fill="#3451B2"/>
<rect x="483" y="438.156" width="227.166" height="22" rx="11" transform="rotate(-44.4763 483 438.156)" fill="#3451B2"/>
<rect x="164" y="311.156" width="370.592" height="22" rx="11" transform="rotate(-44.4763 164 311.156)" fill="#3451B2"/>
<rect x="482.329" y="508.652" width="240.72" height="22" rx="11" transform="rotate(-44.4763 482.329 508.652)" fill="#3451B2"/>
<rect x="433" y="629.652" width="287.099" height="22" rx="11" transform="rotate(-44.4763 433 629.652)" fill="#656A79"/>
<rect x="353" y="637.145" width="91.3038" height="22" rx="11" transform="rotate(-44.4763 353 637.145)" fill="#656A79"/>
<rect x="77" y="331.969" width="91.3038" height="22" rx="11" transform="rotate(-44.4763 77 331.969)" fill="#656A79"/>
<rect x="144" y="700.652" width="79.7627" height="22" rx="11" transform="rotate(-44.4763 144 700.652)" fill="#3451B2"/>
<rect x="235" y="378.894" width="306.941" height="22" rx="11" transform="rotate(-44.4763 235 378.894)" class="fillColor"/>
<path d="M676 384C663 579.5 469.5 699 303.5 661.5L260.5 705.5C542 779.5 732.5 544.5 724 384H676Z" class="fillColor"/>
<path d="M57.0001 560.5C-93.5 319 67.5 -20.5 404 1.50003V52C120.5 29 -23.5 303 94.0001 524.5L57.0001 560.5Z" class="fillColor"/>
</svg>
